<svg width="100" height="100" viewBox="0 0 100 100" fill="none" xmlns="http://www.w3.org/2000/svg">
<path d="M0 21C0 9.40202 9.40202 0 21 0V100H0V21Z" fill="#3081ED"/>
<path d="M25 60H46V100H35.5C29.701 100 25 95.299 25 89.5V60Z" fill="white"/>
<path d="M79 39H89.5C95.299 39 100 43.701 100 49.5V89.5C100 95.299 95.299 100 89.5 100H79V39Z" fill="white"/>
<path d="M94.5 0C97.5376 0 100 2.46243 100 5.5C100 8.53757 97.5376 11 94.5 11L21 11V0L94.5 0Z" fill="#3081ED"/>
<path d="M88.5 19C91.5376 19 94 21.4624 94 24.5C94 27.5376 91.5376 30 88.5 30L10 30V19L88.5 19Z" fill="#3081ED"/>
<path d="M94.5 19C97.5376 19 100 21.4624 100 24.5C100 27.5376 97.5376 30 94.5 30L25 30C25 23.9249 29.9249 19 36 19L94.5 19Z" fill="white"/>
<path d="M89 39C95.0751 39 100 43.9249 100 50H36C29.9249 50 25 45.0751 25 39L89 39Z" fill="white"/>
<path d="M100 89C100 95.0751 95.0751 100 89 100H36C29.9249 100 25 95.0751 25 89H100Z" fill="white"/>
</svg>
